<svg width="920" height="300" viewBox="0 0 920 300" fill="none" xmlns="http://www.w3.org/2000/svg">
  <rect x="8" y="8" width="904" height="284" rx="22" fill="#FBF6EC" stroke="#D5BE93" stroke-width="1.25"/>
  <text x="460" y="102" text-anchor="middle" fill="#10233D" font-family="Georgia, 'Times New Roman', serif" font-size="80" font-weight="700" letter-spacing="2.5">DEL MONTE</text>
  <line x1="144" y1="154" x2="334" y2="154" stroke="#CFB17A" stroke-width="5" stroke-linecap="round"/>
  <line x1="586" y1="154" x2="776" y2="154" stroke="#CFB17A" stroke-width="5" stroke-linecap="round"/>
  <path d="M460 120L562 138L460 156L358 138L460 120Z" fill="#10233D"/>
  <path d="M389 143H531V165C531 177 500 186 460 186C420 186 389 177 389 165V143Z" fill="#10233D"/>
  <rect x="364" y="132" width="6.5" height="18" fill="#CFB17A"/>
  <path d="M367.25 150V174C367.25 182 361 191 352.5 194" stroke="#CFB17A" stroke-width="4.5" stroke-linecap="round"/>
  <ellipse cx="352.5" cy="200" rx="9.5" ry="11.5" fill="#CFB17A"/>
  <text x="460" y="248" text-anchor="middle" fill="#C6A05D" font-family="Georgia, 'Times New Roman', serif" font-size="46" font-weight="700" letter-spacing="6">STUDIO LEGALE</text>
</svg>
